<?xml version="1.0" encoding="iso-8859-1"?>
<!-- Generator: Adobe Illustrator 19.0.0, SVG Export Plug-In . SVG Version: 6.00 Build 0)  -->
<svg version="1.1" id="Capa_1" xmlns="http://www.w3.org/2000/svg" xmlns:xlink="http://www.w3.org/1999/xlink" x="0px" y="0px"
	 viewBox="0 0 463 463" style="enable-background:new 0 0 463 463;" xml:space="preserve">
<path d="M391.5,0c-4.142,0-7.5,3.358-7.5,7.5v264c0,9.098-7.402,16.5-16.5,16.5h-272c-9.098,0-16.5-7.402-16.5-16.5V7.5
	C79,3.358,75.642,0,71.5,0S64,3.358,64,7.5v264c0,17.369,14.131,31.5,31.5,31.5H224v121h-8.5c-12.958,0-23.5,10.542-23.5,23.5v8
	c0,4.142,3.358,7.5,7.5,7.5h64c4.142,0,7.5-3.358,7.5-7.5v-8c0-12.958-10.542-23.5-23.5-23.5H239V303h128.5
	c17.369,0,31.5-14.131,31.5-31.5V7.5C399,3.358,395.642,0,391.5,0z M256,447.5v0.5h-49v-0.5c0-4.687,3.813-8.5,8.5-8.5h32
	C252.187,439,256,442.813,256,447.5z"/>
<g>
</g>
<g>
</g>
<g>
</g>
<g>
</g>
<g>
</g>
<g>
</g>
<g>
</g>
<g>
</g>
<g>
</g>
<g>
</g>
<g>
</g>
<g>
</g>
<g>
</g>
<g>
</g>
<g>
</g>
</svg>
